<svg width="32" height="33" viewBox="0 0 32 33" fill="none" xmlns="http://www.w3.org/2000/svg">
<path fill-rule="evenodd" clip-rule="evenodd" d="M25.6001 16.1085L12.3638 2.87207L10.7535 4.48239L22.3075 16.0365L10.6815 27.6625L12.3638 29.3448L25.6001 16.1085Z" fill="currentColor"/>
<path d="M12.3638 2.87207L12.5658 2.67004L12.3638 2.46801L12.1617 2.67004L12.3638 2.87207ZM25.6001 16.1085L25.8022 16.3105L26.0042 16.1085L25.8022 15.9064L25.6001 16.1085ZM10.7535 4.48239L10.5514 4.28036L10.3494 4.48239L10.5514 4.68442L10.7535 4.48239ZM22.3075 16.0365L22.5096 16.2385L22.7116 16.0365L22.5096 15.8344L22.3075 16.0365ZM10.6815 27.6625L10.4794 27.4605L10.2774 27.6625L10.4794 27.8646L10.6815 27.6625ZM12.3638 29.3448L12.1617 29.5469L12.3638 29.7489L12.5658 29.5469L12.3638 29.3448ZM12.1617 3.0741L25.3981 16.3105L25.8022 15.9064L12.5658 2.67004L12.1617 3.0741ZM10.9555 4.68442L12.5658 3.0741L12.1617 2.67004L10.5514 4.28036L10.9555 4.68442ZM10.5514 4.68442L22.1055 16.2385L22.5096 15.8344L10.9555 4.28036L10.5514 4.68442ZM22.1055 15.8344L10.4794 27.4605L10.8835 27.8646L22.5096 16.2385L22.1055 15.8344ZM12.5658 29.1428L10.8835 27.4605L10.4794 27.8646L12.1617 29.5469L12.5658 29.1428ZM25.3981 15.9064L12.1617 29.1428L12.5658 29.5469L25.8022 16.3105L25.3981 15.9064Z" fill="currentColor"/>
</svg>
