<svg width="184" height="36" viewBox="0 0 184 36" fill="none" xmlns="http://www.w3.org/2000/svg"><g clip-path="url(#clip0_194_1175)"><path d="M15.721 26.1865C15.7334 26.8147 15.6203 27.4391 15.3885 28.0232C15.1566 28.6072 14.8106 29.1391 14.3706 29.5878C13.9307 30.0365 13.4057 30.3929 12.8264 30.6363C12.247 30.8796 11.6249 31.0049 10.9966 31.0049C10.3682 31.0049 9.74616 30.8796 9.16681 30.6363C8.58746 30.3929 8.06242 30.0365 7.6225 29.5878C7.18257 29.1391 6.83658 28.6072 6.60472 28.0232C6.37286 27.4391 6.25983 26.8147 6.27222 26.1865C6.27222 26.0266 6.2722 25.8686 6.29608 25.7143H1.39075C1.39075 28.2631 2.40328 30.7076 4.20559 32.5099C6.00789 34.3122 8.45235 35.3247 11.0012 35.3247C13.55 35.3247 15.9945 34.3122 17.7968 32.5099C19.5991 30.7076 20.6116 28.2631 20.6116 25.7143H15.7007C15.7209 25.8686 15.721 26.0266 15.721 26.1865Z" fill="white"/><path d="M44.0874 22.1813H49.4833C49.2138 23.4444 48.5145 24.5749 47.5047 25.3799C46.3436 26.2581 44.7746 26.6347 43.3948 26.6347C41.1681 26.6347 39.6929 25.7565 38.7522 24.8471C37.874 24.0002 36.6817 22.3375 36.6817 19.5449C36.6817 17.1933 37.6003 15.1852 38.7834 14.0333C40.0695 12.7785 41.9526 12.1833 43.6153 12.1833C44.6318 12.182 45.6358 12.4067 46.5548 12.841C47.6108 13.388 48.47 14.2504 49.013 15.3083L52.557 13.3958C51.6388 11.7748 50.2792 10.4477 48.6364 9.56891C47.0362 8.72196 45.3735 8.46658 43.8046 8.46658C39.7627 8.46658 37.1226 10.0668 35.5555 11.667C34.2988 12.9218 32.48 15.4002 32.48 19.4457C32.48 24.1508 34.8683 26.7946 35.5867 27.5074C37.8758 29.7984 40.5747 30.3312 43.178 30.3312C45.7814 30.3312 48.4471 29.7359 50.6114 27.5754C53.4976 24.7222 53.6869 20.3294 53.6869 18.9185V18.6668H44.0874V22.1813Z" fill="white"/><path d="M66.0457 18.0403C64.7597 16.0322 62.7222 15.8356 61.686 15.8356C57.6717 15.8356 54.9417 19.0342 54.9417 23.0503C54.9417 27.0334 57.6975 30.2963 61.8734 30.2963C62.8472 30.2963 64.666 30.0758 66.0457 28.0916V29.848H69.8745V16.2839H66.0457V18.0403ZM62.6579 26.9177C60.4625 26.9177 58.8935 25.2237 58.8935 23.0595C58.8935 20.8953 60.4625 19.2326 62.6579 19.2326C64.8534 19.2326 66.4224 20.8861 66.4224 23.0595C66.4224 25.2329 64.8552 26.9177 62.6579 26.9177Z" fill="white"/><path d="M76.0842 6.99866H72.2573V29.8664H76.0842V6.99866Z" fill="white"/><path d="M88.8841 18.0403C87.5981 16.0322 85.5588 15.8356 84.5244 15.8356C80.5083 15.8356 77.78 19.0342 77.78 23.0503C77.78 27.0334 80.5358 30.2963 84.7118 30.2963C85.6837 30.2963 87.5044 30.0758 88.8841 28.0916V29.848H92.711V16.2839H88.8841V18.0403ZM85.4963 26.9177C83.3008 26.9177 81.7319 25.2237 81.7319 23.0595C81.7319 20.8953 83.3008 19.2326 85.4963 19.2326C87.6918 19.2326 89.2607 20.8861 89.2607 23.0595C89.2607 25.2329 87.6918 26.9177 85.4963 26.9177Z" fill="white"/><path d="M96.7584 17.6012C95.3786 18.8247 94.4049 20.7373 94.4049 23.1128C94.4049 25.6536 95.5348 27.3476 96.571 28.3194C97.7927 29.4805 99.6759 30.2963 101.809 30.2963C103.03 30.2966 104.233 30.0083 105.322 29.4548V25.7253C104.504 26.4883 103.429 26.9142 102.31 26.9176C100.021 26.9176 98.3586 25.2862 98.3586 23.0595C98.3586 21.0827 99.6446 19.2326 102.185 19.2326C103.347 19.2008 104.474 19.6286 105.322 20.4231V16.6605C104.178 16.1033 102.919 15.8238 101.647 15.8448C100.334 15.8448 98.4211 16.1259 96.7584 17.6012Z" fill="white"/><path d="M113.273 11.6412H109.446V16.2839H107.017V19.5449H109.446V29.8663H113.273V19.5449H115.908V16.2839H113.273V11.6412Z" fill="white"/><path d="M121.811 16.2839H117.984V29.8663H121.811V16.2839Z" fill="white"/><path d="M125.806 17.6012C124.427 18.8247 123.455 20.7373 123.455 23.1128C123.455 25.6536 124.583 27.3476 125.619 28.3194C126.843 29.4805 128.724 30.2963 130.857 30.2963C132.079 30.2946 133.283 30.0044 134.372 29.4493V25.7253C133.554 26.4881 132.478 26.914 131.36 26.9176C129.069 26.9176 127.407 25.2862 127.407 23.0595C127.407 21.0827 128.693 19.2326 131.234 19.2326C132.395 19.2017 133.523 19.6294 134.372 20.4231V16.6605C133.228 16.1033 131.969 15.8238 130.697 15.8448C129.384 15.8448 127.469 16.1259 125.806 17.6012Z" fill="white"/><path d="M146.368 8.94241H132.878V12.457H137.585V29.8664H141.661V12.457H146.368V8.94241Z" fill="white"/><path d="M155.025 18.0403C153.739 16.0322 151.702 15.8356 150.666 15.8356C146.65 15.8356 143.921 19.0342 143.921 23.0503C143.921 27.0334 146.677 30.2963 150.853 30.2963C151.827 30.2963 153.646 30.0758 155.025 28.0916V29.848H158.852V16.2839H155.025V18.0403ZM151.638 26.9177C149.433 26.9177 147.873 25.2237 147.873 23.0595C147.873 20.8953 149.442 19.2326 151.638 19.2326C153.833 19.2326 155.402 20.8861 155.402 23.0595C155.402 25.2329 153.835 26.9177 151.638 26.9177Z" fill="white"/><path d="M165.692 6.99866H161.865V29.8664H165.692V6.99866Z" fill="white"/><path d="M175.909 21.2848L172.53 21.2389V6.99866H168.703V29.8664H172.53V24.0792L173.511 24.0626L179.223 29.8664H184L175.909 21.2848Z" fill="white"/><path d="M183.245 15.3616H178.904L173.906 20.1512H178.272L183.245 15.3616Z" fill="white"/><path d="M121.452 8.80095L118.388 14.4118H122.143L125.184 8.80095H121.452Z" fill="white"/><path d="M25.1404 0.623535H20.2644L17.7419 5.23308C15.544 3.50072 12.766 2.67601 9.97883 2.92842C7.19167 3.18083 4.60708 4.49119 2.75613 6.59023C0.905177 8.68927 -0.0715235 11.4175 0.026781 14.2144C0.125085 17.0112 1.29093 19.6642 3.28468 21.6281C5.27844 23.592 7.94867 24.7177 10.7467 24.7738C13.5447 24.8299 16.2579 23.8122 18.3288 21.9297C20.3997 20.0473 21.6709 17.4432 21.8813 14.6526C22.0916 11.8619 21.2251 9.0967 19.4597 6.92515H21.7195L25.1404 0.623535ZM4.503 13.8386C4.50268 12.7604 4.77239 11.6994 5.28749 10.7522C5.80259 9.80508 6.54671 9.00201 7.45191 8.41633C8.3571 7.83064 9.39457 7.48099 10.4696 7.39927C11.5447 7.31755 12.623 7.50636 13.6064 7.94848C12.2079 8.17559 10.9358 8.89289 10.0178 9.97203C9.09977 11.0512 8.59563 12.4218 8.59563 13.8386C8.59563 15.2554 9.09977 16.626 10.0178 17.7051C10.9358 18.7842 12.2079 19.5015 13.6064 19.7287C12.623 20.1698 11.5448 20.3578 10.4702 20.2756C9.39549 20.1935 8.35847 19.8437 7.45357 19.2582C6.54866 18.6727 5.80464 17.8701 5.28929 16.9235C4.77393 15.9769 4.50363 14.9164 4.503 13.8386Z" fill="white"/></g><defs><clipPath id="clip0_194_1175"><rect width="184" height="34.7012" fill="white" transform="translate(0 0.623535)"/></clipPath></defs></svg>