<svg width="49" height="48" viewBox="0 0 49 48" fill="none" xmlns="http://www.w3.org/2000/svg">
<path d="M25.0425 32.3193C31.3983 32.3193 36.5508 27.1669 36.5508 20.811C36.5508 14.4552 31.3983 9.30273 25.0425 9.30273C18.6866 9.30273 13.5342 14.4552 13.5342 20.811C13.5342 27.1669 18.6866 32.3193 25.0425 32.3193Z" stroke="white" stroke-width="2"/>
<path d="M9.57422 46.5002C9.57422 39.1834 13.5195 34.6643 15.4922 33.3193" stroke="white" stroke-width="2" stroke-linecap="round"/>
<path d="M40.5098 46.5002C40.5098 39.1834 36.5645 34.6643 34.5918 33.3193" stroke="white" stroke-width="2" stroke-linecap="round"/>
<path d="M25.0426 18.7931C29.4994 18.7931 33.1125 16.4447 33.1125 13.5477C33.1125 10.6507 29.4994 8.30225 25.0426 8.30225C20.5857 8.30225 16.9727 10.6507 16.9727 13.5477C16.9727 16.4447 20.5857 18.7931 25.0426 18.7931Z" fill="#B95CFF" stroke="white" stroke-width="2" stroke-linecap="round" stroke-linejoin="round"/>
<path d="M11.5918 8.70592L25.5796 2.25L38.4915 8.70592L25.5796 14.3549L11.5918 8.70592Z" fill="#B95CFF" stroke="white" stroke-width="2" stroke-linecap="round" stroke-linejoin="round"/>
</svg>
