<svg width="49" height="48" viewBox="0 0 49 48" fill="none" xmlns="http://www.w3.org/2000/svg">
<path d="M44.5834 23.9999C44.5834 35.4658 35.2885 44.7606 23.8227 44.7606V46.7606C36.3931 46.7606 46.5834 36.5703 46.5834 23.9999H44.5834ZM23.8227 3.23926C35.2885 3.23926 44.5834 12.5341 44.5834 23.9999H46.5834C46.5834 11.4296 36.3931 1.23926 23.8227 1.23926V3.23926ZM3.06202 23.9999C3.06202 12.5341 12.3569 3.23926 23.8227 3.23926V1.23926C11.2523 1.23926 1.06201 11.4296 1.06201 23.9999H3.06202ZM23.8227 44.7606C12.3569 44.7606 3.06202 35.4658 3.06202 23.9999H1.06201C1.06201 36.5703 11.2523 46.7606 23.8227 46.7606V44.7606ZM39.5719 23.9999C39.5719 32.698 32.5207 39.7491 23.8227 39.7491V41.7491C33.6253 41.7491 41.5719 33.8025 41.5719 23.9999H39.5719ZM23.8227 8.25078C32.5207 8.25078 39.5719 15.3019 39.5719 23.9999H41.5719C41.5719 14.1973 33.6253 6.25078 23.8227 6.25078V8.25078ZM8.07354 23.9999C8.07354 15.3019 15.1247 8.25078 23.8227 8.25078V6.25078C14.0201 6.25078 6.07354 14.1973 6.07354 23.9999H8.07354ZM23.8227 39.7491C15.1247 39.7491 8.07354 32.698 8.07354 23.9999H6.07354C6.07354 33.8025 14.0201 41.7491 23.8227 41.7491V39.7491Z" fill="white"/>
<path d="M22.2905 12.5107V27.0639H32.5033" stroke="white" stroke-width="2" stroke-linecap="round"/>
</svg>
