<svg width="202" height="132" viewBox="0 0 202 132" fill="none" xmlns="http://www.w3.org/2000/svg">
<path d="M108.3 62.5028C108.33 64.0236 108.057 65.5351 107.497 66.9489C106.938 68.3626 106.103 69.6502 105.041 70.7363C103.98 71.8225 102.713 72.6853 101.315 73.2743C99.917 73.8633 98.4159 74.1667 96.8996 74.1667C95.3833 74.1667 93.8823 73.8633 92.4843 73.2743C91.0863 72.6853 89.8194 71.8225 88.7578 70.7363C87.6963 69.6502 86.8614 68.3626 86.3019 66.9489C85.7424 65.5351 85.4696 64.0236 85.4995 62.5028C85.4995 62.1159 85.4995 61.7334 85.5571 61.3599H73.7203C73.7203 67.5298 76.1636 73.447 80.5127 77.8098C84.8617 82.1725 90.7603 84.6235 96.9108 84.6235C103.061 84.6235 108.96 82.1725 113.309 77.8098C117.658 73.447 120.101 67.5298 120.101 61.3599H108.251C108.3 61.7334 108.3 62.1159 108.3 62.5028Z" fill="white"/>
<path d="M131.029 0.623535H119.263L113.176 11.7817C107.873 7.58824 101.169 5.59189 94.4438 6.2029C87.7182 6.8139 81.4815 9.98585 77.0151 15.0669C72.5486 20.148 70.1918 26.7522 70.429 33.5225C70.6662 40.2927 73.4795 46.7146 78.2905 51.4686C83.1015 56.2225 89.5449 58.9474 96.2966 59.0832C103.048 59.219 109.595 56.7555 114.593 52.1988C119.59 47.6421 122.657 41.3384 123.165 34.5832C123.672 27.8279 121.581 21.1343 117.322 15.8777H122.774L131.029 0.623535ZM81.2303 32.6127C81.2296 30.0029 81.8804 27.4344 83.1234 25.1417C84.3663 22.849 86.1619 20.905 88.3462 19.4873C90.5305 18.0695 93.0339 17.2232 95.6281 17.0253C98.2222 16.8275 100.824 17.2846 103.197 18.3548C99.8226 18.9045 96.7531 20.6409 94.5378 23.2531C92.3226 25.8654 91.106 29.1831 91.106 32.6127C91.106 36.0423 92.3226 39.3601 94.5378 41.9723C96.7531 44.5846 99.8226 46.3209 103.197 46.8707C100.824 47.9385 98.2226 48.3936 95.6294 48.1947C93.0361 47.9958 90.5338 47.1492 88.3502 45.7319C86.1666 44.3146 84.3713 42.3717 83.1277 40.0803C81.8841 37.7889 81.2319 35.2217 81.2303 32.6127Z" fill="white"/>
<path d="M15.4318 120.872H22.6055C22.2472 122.557 21.3175 124.064 19.9749 125.138C18.4313 126.309 16.3453 126.812 14.511 126.812C11.5507 126.812 9.58936 125.64 8.33879 124.427C7.17127 123.298 5.58607 121.08 5.58607 117.356C5.58607 114.22 6.80731 111.542 8.3803 110.005C10.0901 108.332 12.5937 107.538 14.8041 107.538C16.1555 107.536 17.4904 107.836 18.7122 108.415C20.116 109.145 21.2583 110.295 21.9802 111.706L26.6919 109.155C25.4711 106.993 23.6636 105.223 21.4795 104.051C19.3521 102.922 17.1416 102.581 15.0557 102.581C9.68218 102.581 6.17224 104.715 4.08877 106.849C2.41809 108.523 0 111.828 0 117.224C0 123.499 3.17525 127.025 4.13028 127.975C7.17366 131.031 10.7617 131.741 14.2228 131.741C17.6838 131.741 21.2279 130.948 24.1052 128.066C27.9424 124.261 28.194 118.402 28.194 116.521V116.185H15.4318V120.872Z" fill="white"/>
<path d="M44.6247 115.349C42.915 112.671 40.2062 112.409 38.8287 112.409C33.4918 112.409 29.8622 116.675 29.8622 122.031C29.8622 127.343 33.526 131.695 39.0778 131.695C40.3723 131.695 42.7904 131.401 44.6247 128.755V131.097H49.715V113.007H44.6247V115.349ZM40.1208 127.189C37.202 127.189 35.116 124.93 35.116 122.043C35.116 119.157 37.202 116.939 40.1208 116.939C43.0396 116.939 45.1255 119.145 45.1255 122.043C45.1255 124.942 43.042 127.189 40.1208 127.189Z" fill="white"/>
<path d="M57.9706 100.623H52.8828V131.122H57.9706V100.623Z" fill="white"/>
<path d="M74.9877 115.349C73.2779 112.671 70.5667 112.409 69.1916 112.409C63.8522 112.409 60.2251 116.675 60.2251 122.031C60.2251 127.343 63.8889 131.695 69.4407 131.695C70.7328 131.695 73.1533 131.401 74.9877 128.755V131.097H80.0754V113.007H74.9877V115.349ZM70.4837 127.189C67.5649 127.189 65.479 124.93 65.479 122.043C65.479 119.157 67.5649 116.939 70.4837 116.939C73.4025 116.939 75.4884 119.145 75.4884 122.043C75.4884 124.942 73.4025 127.189 70.4837 127.189Z" fill="white"/>
<path d="M85.4563 114.764C83.6219 116.395 82.3274 118.946 82.3274 122.114C82.3274 125.503 83.8296 127.762 85.2071 129.058C86.8314 130.607 89.335 131.695 92.1708 131.695C93.7939 131.695 95.3941 131.311 96.8408 130.573V125.599C95.7541 126.616 94.3242 127.184 92.8376 127.189C89.7942 127.189 87.5837 125.013 87.5837 122.043C87.5837 119.407 89.2934 116.939 92.6714 116.939C94.2155 116.897 95.7138 117.468 96.8408 118.527V113.509C95.3205 112.766 93.6468 112.393 91.9558 112.421C90.2094 112.421 87.6668 112.796 85.4563 114.764Z" fill="white"/>
<path d="M107.412 106.815H102.324V113.007H99.0952V117.356H102.324V131.122H107.412V117.356H110.915V113.007H107.412V106.815Z" fill="white"/>
<path d="M118.762 113.007H113.675V131.121H118.762V113.007Z" fill="white"/>
<path d="M124.075 114.764C122.241 116.395 120.949 118.946 120.949 122.114C120.949 125.503 122.448 127.762 123.826 129.058C125.453 130.607 127.954 131.695 130.79 131.695C132.414 131.693 134.015 131.305 135.462 130.565V125.599C134.375 126.616 132.945 127.184 131.459 127.189C128.413 127.189 126.202 125.013 126.202 122.043C126.202 119.407 127.912 116.939 131.29 116.939C132.835 116.898 134.334 117.469 135.462 118.527V113.509C133.942 112.766 132.268 112.393 130.577 112.421C128.831 112.421 126.286 112.796 124.075 114.764Z" fill="white"/>
<path d="M151.412 103.216H133.476V107.903H139.734V131.122H145.154V107.903H151.412V103.216Z" fill="white"/>
<path d="M162.921 115.349C161.211 112.671 158.502 112.409 157.125 112.409C151.785 112.409 148.158 116.675 148.158 122.031C148.158 127.343 151.822 131.695 157.374 131.695C158.668 131.695 161.086 131.401 162.921 128.755V131.097H168.009V113.007H162.921V115.349ZM158.417 127.189C155.486 127.189 153.412 124.93 153.412 122.043C153.412 119.157 155.498 116.939 158.417 116.939C161.336 116.939 163.422 119.145 163.422 122.043C163.422 124.942 161.338 127.189 158.417 127.189Z" fill="white"/>
<path d="M177.102 100.623H172.014V131.122H177.102V100.623Z" fill="white"/>
<path d="M190.685 119.677L186.193 119.615V100.623H181.105V131.122H186.193V123.403L187.498 123.381L195.091 131.122H201.442L190.685 119.677Z" fill="white"/>
<path d="M200.438 111.777H194.666L188.022 118.165H193.826L200.438 111.777Z" fill="white"/>
<path d="M118.286 103.027L114.212 110.51H119.205L123.247 103.027H118.286Z" fill="white"/>
</svg>
