<svg width="32" height="33" viewBox="0 0 32 33" fill="none" xmlns="http://www.w3.org/2000/svg"><path fill-rule="evenodd" clip-rule="evenodd" d="M6.39985 16.1085L19.6362 2.87207L21.2465 4.48239L9.69247 16.0365L21.3185 27.6625L19.6362 29.3448L6.39985 16.1085Z" fill="currentColor"/><path d="M19.6362 2.87207L19.4342 2.67004L19.6362 2.46801L19.8383 2.67004L19.6362 2.87207ZM6.39985 16.1085L6.19782 16.3105L5.99579 16.1085L6.19782 15.9064L6.39985 16.1085ZM21.2465 4.48239L21.4486 4.28036L21.6506 4.48239L21.4486 4.68442L21.2465 4.48239ZM9.69247 16.0365L9.49044 16.2385L9.28841 16.0365L9.49044 15.8344L9.69247 16.0365ZM21.3185 27.6625L21.5206 27.4605L21.7226 27.6625L21.5206 27.8646L21.3185 27.6625ZM19.6362 29.3448L19.8383 29.5469L19.6362 29.7489L19.4342 29.5469L19.6362 29.3448ZM19.8383 3.0741L6.60188 16.3105L6.19782 15.9064L19.4342 2.67004L19.8383 3.0741ZM21.0445 4.68442L19.4342 3.0741L19.8383 2.67004L21.4486 4.28036L21.0445 4.68442ZM21.4486 4.68442L9.8945 16.2385L9.49044 15.8344L21.0445 4.28036L21.4486 4.68442ZM9.8945 15.8344L21.5206 27.4605L21.1165 27.8646L9.49044 16.2385L9.8945 15.8344ZM19.4342 29.1428L21.1165 27.4605L21.5206 27.8646L19.8383 29.5469L19.4342 29.1428ZM6.60188 15.9064L19.8383 29.1428L19.4342 29.5469L6.19782 16.3105L6.60188 15.9064Z" fill="currentColor"/></svg>